<?xml version="1.0" encoding="UTF-8"?>
<svg width="80px" height="44px" viewBox="0 0 80 44" version="1.1" xmlns="http://www.w3.org/2000/svg" xmlns:xlink="http://www.w3.org/1999/xlink">
    <!-- Generator: Sketch 57.1 (83088) - https://sketch.com -->
    <title>logo</title>
    <desc>Created with Sketch.</desc>
    <defs>
        <radialGradient cx="155.074751%" cy="-8.83376428%" fx="155.074751%" fy="-8.83376428%" r="203.183746%" gradientTransform="translate(1.550748,-0.088338),scale(1.000000,0.755874),translate(-1.550748,0.088338)" id="radialGradient-1">
            <stop stop-color="#F8C797" offset="0%"></stop>
            <stop stop-color="#E6211A" offset="42.7%"></stop>
            <stop stop-color="#E4211A" offset="67.46%"></stop>
            <stop stop-color="#DD211B" offset="77.4%"></stop>
            <stop stop-color="#D1201C" offset="84.68%"></stop>
            <stop stop-color="#BF1F1E" offset="90.66%"></stop>
            <stop stop-color="#A91E20" offset="95.78%"></stop>
            <stop stop-color="#901D22" offset="100%"></stop>
        </radialGradient>
        <radialGradient cx="173.24055%" cy="-542.640801%" fx="173.24055%" fy="-542.640801%" r="661.244622%" gradientTransform="translate(1.732406,-5.426408),scale(0.354396,1.000000),translate(-1.732406,5.426408)" id="radialGradient-2">
            <stop stop-color="#F8C797" offset="0%"></stop>
            <stop stop-color="#E6211A" offset="42.7%"></stop>
            <stop stop-color="#E4211A" offset="67.46%"></stop>
            <stop stop-color="#DD211B" offset="77.4%"></stop>
            <stop stop-color="#D1201C" offset="84.68%"></stop>
            <stop stop-color="#BF1F1E" offset="90.66%"></stop>
            <stop stop-color="#A91E20" offset="95.78%"></stop>
            <stop stop-color="#901D22" offset="100%"></stop>
        </radialGradient>
        <radialGradient cx="154.594942%" cy="-122.970668%" fx="154.594942%" fy="-122.970668%" r="290.783276%" gradientTransform="translate(1.545949,-1.229707),scale(0.616783,1.000000),translate(-1.545949,1.229707)" id="radialGradient-3">
            <stop stop-color="#F8C797" offset="0%"></stop>
            <stop stop-color="#E6211A" offset="42.7%"></stop>
            <stop stop-color="#E4211A" offset="67.46%"></stop>
            <stop stop-color="#DD211B" offset="77.4%"></stop>
            <stop stop-color="#D1201C" offset="84.68%"></stop>
            <stop stop-color="#BF1F1E" offset="90.66%"></stop>
            <stop stop-color="#A91E20" offset="95.78%"></stop>
            <stop stop-color="#901D22" offset="100%"></stop>
        </radialGradient>
        <radialGradient cx="167.52514%" cy="16.1623407%" fx="167.52514%" fy="16.1623407%" r="340.876648%" gradientTransform="translate(1.675251,0.161623),scale(1.000000,0.362674),translate(-1.675251,-0.161623)" id="radialGradient-4">
            <stop stop-color="#F8C797" offset="0%"></stop>
            <stop stop-color="#E6211A" offset="42.7%"></stop>
            <stop stop-color="#E4211A" offset="67.46%"></stop>
            <stop stop-color="#DD211B" offset="77.4%"></stop>
            <stop stop-color="#D1201C" offset="84.68%"></stop>
            <stop stop-color="#BF1F1E" offset="90.66%"></stop>
            <stop stop-color="#A91E20" offset="95.78%"></stop>
            <stop stop-color="#901D22" offset="100%"></stop>
        </radialGradient>
        <radialGradient cx="53.8810666%" cy="16.6660613%" fx="53.8810666%" fy="16.6660613%" r="338.877966%" gradientTransform="translate(0.538811,0.166661),scale(1.000000,0.365842),translate(-0.538811,-0.166661)" id="radialGradient-5">
            <stop stop-color="#F8C797" offset="0%"></stop>
            <stop stop-color="#E6211A" offset="42.7%"></stop>
            <stop stop-color="#E4211A" offset="67.46%"></stop>
            <stop stop-color="#DD211B" offset="77.4%"></stop>
            <stop stop-color="#D1201C" offset="84.68%"></stop>
            <stop stop-color="#BF1F1E" offset="90.66%"></stop>
            <stop stop-color="#A91E20" offset="95.78%"></stop>
            <stop stop-color="#901D22" offset="100%"></stop>
        </radialGradient>
        <radialGradient cx="10.0796271%" cy="-528.357996%" fx="10.0796271%" fy="-528.357996%" r="667.062272%" gradientTransform="translate(0.100796,-5.283580),scale(0.354396,1.000000),translate(-0.100796,5.283580)" id="radialGradient-6">
            <stop stop-color="#F8C797" offset="0%"></stop>
            <stop stop-color="#E6211A" offset="42.7%"></stop>
            <stop stop-color="#E4211A" offset="67.46%"></stop>
            <stop stop-color="#DD211B" offset="77.4%"></stop>
            <stop stop-color="#D1201C" offset="84.68%"></stop>
            <stop stop-color="#BF1F1E" offset="90.66%"></stop>
            <stop stop-color="#A91E20" offset="95.78%"></stop>
            <stop stop-color="#901D22" offset="100%"></stop>
        </radialGradient>
        <radialGradient cx="8.89722449%" cy="-122.943513%" fx="8.89722449%" fy="-122.943513%" r="292.581333%" gradientTransform="translate(0.088972,-1.229435),scale(0.616783,1.000000),translate(-0.088972,1.229435)" id="radialGradient-7">
            <stop stop-color="#F8C797" offset="0%"></stop>
            <stop stop-color="#E6211A" offset="42.7%"></stop>
            <stop stop-color="#E4211A" offset="67.46%"></stop>
            <stop stop-color="#DD211B" offset="77.4%"></stop>
            <stop stop-color="#D1201C" offset="84.68%"></stop>
            <stop stop-color="#BF1F1E" offset="90.66%"></stop>
            <stop stop-color="#A91E20" offset="95.78%"></stop>
            <stop stop-color="#901D22" offset="100%"></stop>
        </radialGradient>
        <radialGradient cx="17.1125081%" cy="-8.84528496%" fx="17.1125081%" fy="-8.84528496%" r="203.513925%" gradientTransform="translate(0.171125,-0.088453),scale(1.000000,0.759960),translate(-0.171125,0.088453)" id="radialGradient-8">
            <stop stop-color="#F8C797" offset="0%"></stop>
            <stop stop-color="#E6211A" offset="42.7%"></stop>
            <stop stop-color="#E4211A" offset="67.46%"></stop>
            <stop stop-color="#DD211B" offset="77.4%"></stop>
            <stop stop-color="#D1201C" offset="84.68%"></stop>
            <stop stop-color="#BF1F1E" offset="90.66%"></stop>
            <stop stop-color="#A91E20" offset="95.78%"></stop>
            <stop stop-color="#901D22" offset="100%"></stop>
        </radialGradient>
    </defs>
    <g id="页面-1" stroke="none" stroke-width="1" fill="none" fill-rule="evenodd">
        <g id="切图" transform="translate(-37.000000, -12.000000)">
            <g id="编组-5" transform="translate(37.000000, 20.000000)">
                <g id="Group复制-2" transform="translate(36.689655, 7.007663)" fill="#FFFFFF">
                    <path d="M4.742998,6.09521737 C4.59483441,5.63119693 4.41031334,5.1671765 4.18861468,4.70315607 C5.22275279,4.3549977 6.14672497,4.02715096 6.95998452,3.71689808 L6.95998452,0.236744828 L8.45651876,0.236744828 L8.45651876,3.02101047 C9.6013695,2.48003474 10.7652191,1.76483678 11.9483409,0.874844444 L12.8351355,1.9769645 C11.5049436,2.94405517 10.0447668,3.81402197 8.45651876,4.58715096 L8.45651876,5.28303857 C8.4192045,5.9793553 8.75188916,6.30834636 9.45416269,6.26929655 L10.618149,6.26929655 C11.2087531,6.30834636 11.5784786,6.0371433 11.7266422,5.45711775 C11.8001773,5.10910243 11.8556703,4.60703346 11.8928479,3.94905134 C12.4099169,4.14301303 12.8906285,4.29720971 13.3340258,4.41307178 C13.2231765,5.10910243 13.1123271,5.70929655 13.0014778,6.21122248 C12.816,7.17831315 12.1328619,7.64233359 10.9506969,7.60328378 L8.89991606,7.60328378 C7.56958747,7.6813834 6.92280694,7.02325824 6.95998452,5.63119693 L6.95998452,5.22525057 C6.29475188,5.49616756 5.55530076,5.78610881 4.742998,6.09521737 L4.742998,6.09521737 Z M0.142545946,10.7355648 L0.142545946,9.28542937 L5.96234058,9.28542937 L5.96234058,7.77736296 L7.45887482,7.77736296 L7.45887482,9.28542937 L13.3340258,9.28542937 L13.3340258,10.7355648 L7.45887482,10.7355648 L7.45887482,13.9257768 L5.96234058,13.9257768 L5.96234058,10.7355648 L0.142545946,10.7355648 Z M0.58594325,5.68927101 C0.475230606,5.187059 0.289752757,4.64493895 0.0316966198,4.06505645 C1.50909534,3.06006028 2.76575219,1.70690575 3.8005737,0.00487765006 L5.24175162,0.584903193 C4.76104006,1.31984061 4.26228643,2.0160143 3.74521738,2.67285211 L3.74521738,7.95144215 L2.24881982,7.95144215 L2.24881982,4.23899259 C1.76810826,4.74220587 1.21386163,5.22525057 0.58594325,5.68927101 L0.58594325,5.68927101 Z" id="Fill-170"></path>
                    <path d="M21.6700454,0.00484904215 C21.5955536,1.59072899 21.5220185,2.75092312 21.4483468,3.4850023 L27.2681414,3.4850023 C27.2308272,4.14312746 27.1754708,5.3030355 27.1017991,6.96515556 C27.0273073,8.82138033 26.9719509,10.0975796 26.9354568,10.7934672 C26.8982792,12.6495489 25.9933058,13.5777328 24.2195799,13.5777328 C23.3692795,13.6157814 22.4641695,13.6358069 21.5037031,13.6358069 C21.3929905,13.0167315 21.2630056,12.4754697 21.1157988,12.0117354 C22.0027301,12.0895489 22.8340317,12.1277405 23.609977,12.1277405 C24.792142,12.205554 25.3837029,11.605646 25.3837029,10.3294467 C25.3837029,9.98157446 25.4017449,9.40126284 25.4390592,8.58951315 C25.512731,6.92725006 25.5680873,5.72800613 25.6054015,4.99306871 L21.3374975,4.99306871 C21.041307,8.82138033 19.2122248,11.8186319 15.8502508,13.9838222 C15.775759,13.9058656 15.6840452,13.7898605 15.5731958,13.6358069 C15.2033336,13.1717865 14.9080999,12.8236281 14.6864012,12.5917609 C17.8265398,10.6584378 19.4894164,8.12534968 19.6746209,4.99306871 L15.0189492,4.99306871 L15.0189492,3.4850023 L19.8409632,3.4850023 C19.9519492,2.36385798 20.0073056,1.20394994 20.0073056,0.00484904215 L21.6700454,0.00484904215 Z M22.2797851,6.61742631 C23.0920878,7.39141354 23.8316756,8.12534968 24.4967716,8.82138033 L23.332922,9.98157446 C22.9629231,9.51755402 22.4269919,8.89933691 21.7254018,8.12534968 C21.5037031,7.85543397 21.3374975,7.66132925 21.2266481,7.54546718 L22.2797851,6.61742631 Z M16.9587441,0.178642146 C17.1804427,0.372603831 17.5131274,0.700736654 17.9565247,1.16490013 C18.399922,1.59072899 18.73247,1.91886181 18.9541686,2.15101507 L17.734826,3.25284904 C17.1804427,2.51876986 16.5518409,1.80299974 15.8502508,1.10668301 L16.9587441,0.178642146 Z" id="Fill-171"></path>
                    <path d="M30.3941744,0.932904215 L41.2023254,0.932904215 L41.2023254,2.49875862 L30.3941744,2.49875862 L30.3941744,0.932904215 Z M29.2303248,6.79109068 L29.2303248,5.22523627 L42.477161,5.22523627 L42.477161,6.79109068 L35.8259281,6.79109068 C34.9019559,8.14538953 33.7561484,9.65345594 32.389599,11.315576 C33.6090782,11.315576 35.7333942,11.2386207 38.7635036,11.0837088 C38.1720794,10.1942886 37.5624764,9.38253895 36.9344213,8.64731545 L38.2093936,7.83542273 C38.7635036,8.49340485 39.6132573,9.57535632 40.7589281,11.0837088 C41.3495322,11.857696 41.7747508,12.3786462 42.0337637,12.6495632 L40.6480788,13.5776041 L39.8166405,12.417696 C38.5601203,12.4556015 36.5646958,12.5527254 33.8307769,12.7076373 C33.239216,12.7458289 32.7958187,12.7658544 32.5004483,12.7658544 C31.7980381,12.8036169 31.1882985,12.8817165 30.6713661,12.9977216 L29.9507771,11.4315811 C30.4306686,11.1615223 30.9112435,10.7355504 31.391955,10.1556679 C32.2787497,9.0734304 33.0728737,7.95142784 33.7751472,6.79109068 L29.2303248,6.79109068 Z" id="Fill-172"></path>
                </g>
                <g id="编组-3复制" fill-rule="nonzero">
                    <path d="M10.4591079,15.0194917 C10.4591079,15.0194917 10.5187078,14.9572466 10.4591079,14.8950014 L10.4591079,14.8950014 C7.59831259,8.42150375 3.66471909,3.44189017 3.66471909,3.44189017 C3.66471909,3.44189017 1.51912264,5.55822594 1.69792234,7.67456171 C1.75752225,9.29293612 2.94952028,10.2266137 2.94952028,10.2266137 C4.79711722,12.0939688 9.32670973,14.5215304 10.399508,15.0817369 C10.3399081,15.0817369 10.399508,15.0817369 10.4591079,15.0194917 Z" id="XMLID_26_" fill="url(#radialGradient-1)"></path>
                    <path d="M9.76245211,16.5849641 C9.76245211,16.5210728 9.6438112,16.5210728 9.6438112,16.5210728 L9.6438112,16.5210728 L2.1694338,16.7766382 C2.99992018,18.3100306 4.36429066,19.5239663 5.78798159,19.1406182 C6.79642933,18.8850528 8.99128619,17.2238777 9.70313165,16.6488555 L9.70313165,16.6488555 C9.76245211,16.5849641 9.76245211,16.5849641 9.76245211,16.5849641 Z" id="XMLID_25_" fill="url(#radialGradient-2)"></path>
                    <path d="M9.91681153,15.9578544 C9.97627166,15.8952746 9.91681153,15.8326948 9.91681153,15.8326948 L9.91681153,15.8326948 C6.64650449,13.5172414 0.224810669,9.88761175 0.224810669,9.88761175 C-0.369790611,11.7650064 0.403191053,13.3295019 0.403191053,13.3295019 C1.23563285,15.1443167 2.78159617,15.7075351 2.78159617,15.7075351 C3.49511771,16.0204342 4.20863925,16.0204342 4.20863925,16.0204342 C4.3275595,16.0204342 8.66814885,16.0204342 9.79789128,16.0204342 C9.91681153,16.0204342 9.91681153,15.9578544 9.91681153,15.9578544 Z" id="XMLID_24_" fill="url(#radialGradient-3)"></path>
                    <path d="M10.4224855,0 C10.1245541,0 9.23075983,0.249240322 9.23075983,0.249240322 C7.26441252,0.810031048 6.78772226,2.67933347 6.78772226,2.67933347 C6.43020456,3.863225 6.78772226,5.17173669 6.78772226,5.17173669 C7.44317136,8.22493064 10.7204169,13.3343572 11.4354523,14.3936286 C11.4950386,14.4559387 11.4950386,14.4559387 11.4950386,14.4559387 C11.5546248,14.4559387 11.5546248,14.3313185 11.5546248,14.3313185 L11.5546248,14.3313185 C12.6867642,2.99088387 10.4224855,0 10.4224855,0 Z" id="XMLID_23_" fill="url(#radialGradient-4)"></path>
                    <path d="M12.8858669,14.3307791 C12.9450375,14.3307791 13.0042082,14.2687411 13.0042082,14.2687411 L13.0042082,14.2687411 C13.7142556,13.214095 16.9686396,8.1890166 17.6195164,5.14915438 C17.6195164,5.14915438 17.9745402,3.66024227 17.6195164,2.6676342 C17.6195164,2.6676342 17.1461515,0.744456055 15.1343504,0.248152018 C15.1343504,0.248152018 14.5426443,0.124076009 13.9509381,0 C13.9509381,0 11.7616252,2.97782422 12.8266963,14.206703 L12.8266963,14.206703 C12.8266963,14.3307791 12.8858669,14.3307791 12.8858669,14.3307791 Z" id="XMLID_22_" fill="url(#radialGradient-5)"></path>
                    <path d="M14.7034657,16.5210728 C14.7034657,16.5210728 14.6436782,16.5210728 14.6436782,16.583571 C14.6436782,16.583571 14.6436782,16.6460692 14.6436782,16.7085675 L14.6436782,16.7085675 C15.3611287,17.2710515 17.5732679,18.8335071 18.5896562,19.1459983 C18.5896562,19.1459983 20.5626452,19.8334787 22.2366965,16.7710657 L14.7034657,16.5210728 L14.7034657,16.5210728 Z" id="XMLID_21_" fill="url(#radialGradient-6)"></path>
                    <path d="M24.3253755,9.88761175 C24.3253755,9.88761175 17.9303469,13.4546616 14.6431827,15.8326948 L14.6431827,15.8326948 C14.6431827,15.8326948 14.5834161,15.8952746 14.5834161,15.9578544 C14.5834161,15.9578544 14.6431827,16.0204342 14.6431827,16.0204342 L14.6431827,16.0204342 C15.8385152,16.0204342 20.3210118,16.0204342 20.440545,16.0204342 C20.440545,16.0204342 21.0382113,16.0204342 21.7554107,15.7075351 C21.7554107,15.7075351 23.3691095,15.2068966 24.2058422,13.2669221 C24.1460756,13.2669221 24.8632751,11.7024266 24.3253755,9.88761175 Z" id="XMLID_20_" fill="url(#radialGradient-7)"></path>
                    <path d="M13.9470395,14.9915593 C13.9470395,14.9915593 14.0066778,15.0536543 14.0663161,14.9915593 L14.0663161,14.9915593 C15.1398054,14.4327044 19.6126776,12.0730945 21.4614648,10.2102447 C21.4614648,10.2102447 22.6542307,9.21672474 22.713869,7.66434985 C22.8331456,5.49102501 20.7458052,3.44189017 20.7458052,3.44189017 C20.7458052,3.44189017 16.8096777,8.4094898 13.9470395,14.8673693 L13.9470395,14.8673693 C13.9470395,14.8673693 13.8874012,14.9915593 13.9470395,14.9915593 Z" id="XMLID_19_" fill="url(#radialGradient-8)"></path>
                </g>
                <path d="M4.00510856,27.0698745 L3.01148774,27.0698745 L3.01148774,25.0191884 L0.993620814,25.0191884 L0.993620814,27.0698745 L0,27.0698745 L0,22.2160753 L0.993620814,22.2160753 L0.993620814,24.2565365 L3.01148774,24.2565365 L3.01148774,22.2160753 L4.00510856,22.2160753 L4.00510856,27.0698745 Z M8.63060888,22.2160753 L8.63060888,25.3649239 C8.63060888,25.9208151 8.45228979,26.3558048 8.09564627,26.669906 C7.73900276,26.9840071 7.27624832,27.1410553 6.70736909,27.1410553 C6.14067786,27.1410553 5.68065838,26.9840071 5.32729686,26.669906 C4.97393534,26.3558048 4.79725723,25.9208151 4.79725723,25.3649239 L4.79725723,22.2160753 L5.75887712,22.2160753 L5.75887712,25.3649239 C5.75887712,25.6948431 5.84420772,25.9467981 6.01487149,26.1207966 C6.18553526,26.2947951 6.41636549,26.381793 6.70736909,26.381793 C7.00274869,26.381793 7.23686087,26.2947951 7.40971263,26.1207966 C7.5825644,25.9467981 7.66898898,25.6948431 7.66898898,25.3649239 L7.66898898,22.2160753 L8.63060888,22.2160753 Z M11.883226,26.0055515 L10.3341319,26.0055515 L10.0124979,27.0698745 L9.01149425,27.0698745 L10.622946,22.2160753 L11.6042578,22.2160753 L13.2091456,27.0698745 L12.2081419,27.0698745 L11.883226,26.0055515 Z M10.5384351,25.2293413 L11.6182062,25.2293413 L11.0898076,23.4904951 L11.0701157,23.4904951 L10.5384351,25.2293413 Z M16.9002391,25.4835586 L16.919931,25.4835586 L17.5533529,22.2160753 L18.5412287,22.2160753 L17.4253557,27.0698745 L16.5359394,27.0698745 L15.656369,23.8192828 L15.6366771,23.8192828 L14.7603887,27.0698745 L13.8709723,27.0698745 L12.7550994,22.2160753 L13.7429751,22.2160753 L14.3796791,25.4801691 L14.399371,25.4801691 L15.2592495,22.2160753 L16.0337966,22.2160753 L16.9002391,25.4835586 Z M21.461654,24.9005537 L19.963365,24.9005537 L19.963365,26.3106122 L22.0280971,26.3106122 L22.0280971,27.0698745 L19.0242656,27.0698745 L19.0242656,22.2160753 L22.0216649,22.2160753 L22.0216649,22.9787271 L19.963365,22.9787271 L19.963365,24.1379018 L21.461654,24.1379018 L21.461654,24.9005537 Z M24.1717353,27.0698745 L23.1724138,27.0698745 L23.1724138,22.2160753 L24.1717353,22.2160753 L24.1717353,27.0698745 Z" id="HUAWEI-Copy-2" fill="#FFFFFF"></path>
            </g>
        </g>
    </g>
</svg>